<svg width="44" height="44" viewBox="0 0 44 44" fill="none" xmlns="http://www.w3.org/2000/svg">
<circle cx="22" cy="22" r="22" fill="#398B88"/>
<path d="M26.4444 21.8889V18.5556H23.1111V16.3333H26.4444V13H28.6667V16.3333H32V18.5556H28.6667V21.8889H26.4444ZM30.8333 33C28.5185 33 26.2315 32.4954 23.9722 31.4861C21.713 30.4769 19.6574 29.0463 17.8056 27.1944C15.9537 25.3426 14.5231 23.287 13.5139 21.0278C12.5046 18.7685 12 16.4815 12 14.1667C12 13.8333 12.1111 13.5556 12.3333 13.3333C12.5556 13.1111 12.8333 13 13.1667 13H17.6667C17.9259 13 18.1574 13.088 18.3611 13.2639C18.5648 13.4398 18.6852 13.6481 18.7222 13.8889L19.4444 17.7778C19.4815 18.0741 19.4722 18.3241 19.4167 18.5278C19.3611 18.7315 19.2593 18.9074 19.1111 19.0556L16.4167 21.7778C16.787 22.463 17.2269 23.125 17.7361 23.7639C18.2454 24.4028 18.8056 25.0185 19.4167 25.6111C19.9907 26.1852 20.5926 26.7176 21.2222 27.2083C21.8519 27.6991 22.5185 28.1481 23.2222 28.5556L25.8333 25.9444C26 25.7778 26.2176 25.6528 26.4861 25.5694C26.7546 25.4861 27.0185 25.463 27.2778 25.5L31.1111 26.2778C31.3704 26.3519 31.5833 26.4861 31.75 26.6806C31.9167 26.875 32 27.0926 32 27.3333V31.8333C32 32.1667 31.8889 32.4444 31.6667 32.6667C31.4444 32.8889 31.1667 33 30.8333 33Z" fill="white"/>
</svg>
