<svg width="44" height="44" viewBox="0 0 44 44" fill="none" xmlns="http://www.w3.org/2000/svg">
<circle cx="22" cy="22" r="22" fill="#0E4194"/>
<path d="M29.7285 22.9723C29.7285 20.8116 28.976 18.9788 27.4709 17.4737C25.9658 15.9686 24.133 15.2161 21.9723 15.2161V13C23.3573 13 24.6547 13.2632 25.8643 13.7895C27.0739 14.3158 28.1265 15.0268 29.0222 15.9224C29.9178 16.8181 30.6288 17.8707 31.1551 19.0803C31.6814 20.2899 31.9446 21.5873 31.9446 22.9723H29.7285ZM25.2964 22.9723C25.2964 22.0489 24.9732 21.2641 24.3269 20.6177C23.6805 19.9714 22.8957 19.6482 21.9723 19.6482V17.4321C23.5051 17.4321 24.8116 17.9723 25.892 19.0526C26.9723 20.133 27.5125 21.4395 27.5125 22.9723H25.2964ZM30.7812 33C28.4728 33 26.1921 32.4968 23.9391 31.4903C21.6861 30.4838 19.6362 29.0572 17.7895 27.2105C15.9428 25.3638 14.5162 23.3139 13.5097 21.0609C12.5032 18.8079 12 16.5272 12 14.2188C12 13.8864 12.1108 13.6094 12.3324 13.3878C12.554 13.1662 12.831 13.0554 13.1634 13.0554H17.651C17.9095 13.0554 18.1404 13.1431 18.3435 13.3186C18.5466 13.494 18.6667 13.7018 18.7036 13.9418L19.4238 17.8199C19.4608 18.1154 19.4515 18.3647 19.3961 18.5679C19.3407 18.771 19.2392 18.9464 19.0914 19.0942L16.4044 21.8089C16.7738 22.4922 17.2124 23.1524 17.7202 23.7895C18.2281 24.4266 18.7867 25.0406 19.3961 25.6316C19.9686 26.2041 20.5688 26.735 21.1967 27.2244C21.8246 27.7138 22.4894 28.1616 23.1911 28.5679L25.795 25.964C25.9612 25.7978 26.1782 25.6731 26.446 25.59C26.7138 25.5069 26.9769 25.4838 27.2355 25.5208L31.0582 26.2964C31.3167 26.3703 31.5291 26.5042 31.6953 26.6981C31.8615 26.892 31.9446 27.109 31.9446 27.349V31.8366C31.9446 32.169 31.8338 32.446 31.6122 32.6676C31.3906 32.8892 31.1136 33 30.7812 33Z" fill="white"/>
</svg>
