<svg width="188" height="49" viewBox="0 0 188 49" fill="none" xmlns="http://www.w3.org/2000/svg">
<path d="M16.588 34.434V22.422H20.124V26.582H24.05V29.572H20.124V34.434C20.124 35.058 19.448 35.24 18.356 35.24C17.264 35.24 16.588 35.058 16.588 34.434ZM4.654 43.404V36.41H19.864V44.47C19.864 45.666 19.266 46.368 17.966 46.368H7.826C7.124 46.368 6.292 45.796 5.72 45.198C5.174 44.652 4.654 43.898 4.654 43.404ZM8.19 39.374V42.91C8.19 43.248 8.346 43.404 8.658 43.404H16.328V39.374H8.19ZM6.11 30.976H14.222C14.82 30.976 14.924 31.548 14.924 32.51C14.924 33.498 14.82 34.018 14.222 34.018H5.252C4.576 34.018 3.614 33.368 3.042 32.796C2.496 32.224 1.95 31.418 1.95 30.898V23.02H5.538V30.378C5.538 30.768 5.746 30.976 6.11 30.976ZM24.5619 35.084H46.0899C46.7919 35.084 46.8959 35.63 46.8959 36.618C46.8959 37.632 46.7919 38.126 46.0899 38.126H37.1459V44.73C37.1459 45.328 36.4959 45.484 35.3259 45.484C34.2339 45.484 33.5579 45.354 33.5579 44.756V38.126H24.5619V35.084ZM41.4619 33.654C40.3699 33.654 39.6939 33.498 39.6939 32.9V27.05C39.6939 26.582 39.4859 26.478 39.1219 26.478H27.4999V23.436H39.9799C40.6559 23.436 41.5919 24.034 42.1899 24.632C42.7359 25.178 43.2819 25.984 43.2819 26.504V32.9C43.2819 33.498 42.6319 33.654 41.4619 33.654ZM67.9477 22.682V44.158C67.9477 44.756 67.2978 44.912 66.1278 44.912C65.0358 44.912 64.3597 44.782 64.3597 44.184V22.682H67.9477ZM60.2257 39.504C58.5357 37.996 56.6117 35.838 55.6237 33.68C54.5577 35.994 52.2437 38.464 50.5277 39.842C50.0077 40.232 49.4877 39.972 48.7337 39.166C48.0837 38.49 47.6937 37.944 48.1877 37.476C50.8917 35.032 53.5697 31.678 53.5697 28.22V24.216H57.2617V28.168C57.2617 31.574 60.0957 35.006 62.3838 37.164C62.9037 37.632 62.6178 38.022 61.8637 38.828C61.1878 39.53 60.7457 39.946 60.2257 39.504ZM90.9939 46.368H78.3839C77.8119 46.368 77.1619 45.926 76.6679 45.458C76.0699 44.886 75.6279 44.262 75.6279 43.794V39.348H87.3019V37.892H75.6279V35.136H89.7459C90.5779 35.136 90.8379 35.344 90.8379 36.124V42.052H79.1639V43.014C79.1639 43.326 79.3199 43.612 79.7619 43.612H90.9939C91.5399 43.612 91.6179 44.184 91.6179 44.99C91.6179 45.9 91.5399 46.368 90.9939 46.368ZM81.8419 33.186C80.5679 32.172 78.9819 30.482 77.9939 28.636C76.9019 30.586 75.1079 32.406 73.7299 33.498C73.1839 33.914 72.8199 33.758 71.9879 32.796C71.2859 31.964 70.9219 31.678 71.5719 31.106C73.1839 29.728 74.6139 28.22 75.3939 26.764C75.7839 26.088 75.9399 25.36 75.9399 24.086V22.63H79.6319V24.086C79.6319 24.814 79.8139 25.724 80.2299 26.53C81.1139 28.272 82.7779 29.884 83.9219 30.924C84.4679 31.418 84.1299 31.834 83.4279 32.588C82.5959 33.472 82.3359 33.576 81.8419 33.186ZM91.0979 22.422V33.368C91.0979 33.992 90.4219 34.174 89.3299 34.174C88.2379 34.174 87.5619 33.992 87.5619 33.368V28.272H82.9339V25.282H87.5619V22.422H91.0979ZM109.62 38.984V22.422H113.208V28.454H117.134V31.548H113.208V38.958C113.208 39.556 112.558 39.712 111.388 39.712C110.296 39.712 109.62 39.582 109.62 38.984ZM113.078 46.108H100C99.4281 46.108 98.6481 45.562 98.1021 44.99C97.5821 44.47 97.0881 43.768 97.0881 43.3V38.568H100.624V42.494C100.624 42.962 100.832 43.17 101.222 43.17H113.078C113.65 43.17 113.754 43.768 113.754 44.652C113.754 45.614 113.65 46.108 113.078 46.108ZM97.5301 33.94V29.286H100.988V33.94H107.826C108.528 33.94 108.632 34.382 108.632 35.37C108.632 36.384 108.528 36.774 107.826 36.774H93.6041V33.94H97.5301ZM105.148 32.094C104.056 32.094 103.38 31.938 103.38 31.34V26.712C103.38 26.244 103.172 26.14 102.808 26.14H94.8781V23.176H103.666C104.342 23.176 105.278 23.774 105.876 24.372C106.422 24.918 106.968 25.724 106.968 26.244V31.34C106.968 31.938 106.318 32.094 105.148 32.094ZM137.38 22.682V44.158C137.38 44.756 136.73 44.912 135.56 44.912C134.468 44.912 133.792 44.782 133.792 44.184V22.682H137.38ZM121.754 33.264V36.15C121.754 36.54 121.962 36.748 122.326 36.748H130.828C131.426 36.748 131.53 37.294 131.53 38.256C131.53 39.244 131.426 39.79 130.828 39.79H121.468C120.792 39.79 119.83 39.14 119.258 38.568C118.712 37.996 118.166 37.19 118.166 36.67V30.222H125.888V27.128H118.166V24.086H128.254C129.008 24.086 129.476 24.45 129.476 25.256V33.264H121.754ZM158.372 41.662C158.372 44.99 155.07 46.914 151.56 46.914C148.05 46.914 144.748 44.99 144.748 41.662C144.748 38.334 148.05 36.41 151.56 36.41C155.07 36.41 158.372 38.334 158.372 41.662ZM147.972 32.302V28.636H151.56V32.302H162.064C162.766 32.302 162.87 32.744 162.87 33.732C162.87 34.746 162.766 35.136 162.064 35.136H140.536V32.302H147.972ZM157.514 31.054C156.422 31.054 155.772 30.898 155.772 30.3V26.192C155.772 25.724 155.564 25.62 155.2 25.62H143.89V22.656H156.006C156.682 22.656 157.618 23.254 158.216 23.852C158.762 24.398 159.308 25.204 159.308 25.724V30.3C159.308 30.898 158.684 31.054 157.514 31.054ZM154.836 41.662C154.836 40.284 153.484 39.296 151.586 39.296C149.636 39.296 148.284 40.284 148.284 41.662C148.284 43.04 149.636 44.028 151.586 44.028C153.51 44.028 154.836 43.04 154.836 41.662ZM172.352 43.17H183.194C183.766 43.17 183.87 43.768 183.87 44.652C183.87 45.614 183.766 46.108 183.194 46.108H171.468C170.792 46.108 169.856 45.484 169.31 44.912C168.738 44.366 168.218 43.56 168.218 43.066V37.528H171.754V42.598C171.754 42.988 171.962 43.17 172.352 43.17ZM183.402 31.132V38.23C183.402 38.906 182.596 39.01 181.634 39.01C180.516 39.01 179.866 38.828 179.866 38.23V22.422H183.402V28.142H187.328V31.132H183.402ZM168.166 26.192V31.6C168.166 31.964 168.322 32.146 168.712 32.146H177.474C178.072 32.146 178.176 32.64 178.176 33.602C178.176 34.59 178.072 35.058 177.474 35.058H167.906C167.256 35.058 166.346 34.434 165.774 33.862C165.228 33.316 164.708 32.51 164.708 31.938V23.28H176.018C176.616 23.28 176.72 23.748 176.72 24.71C176.72 25.698 176.616 26.192 176.018 26.192H168.166Z" fill="black"/>
<path d="M14.59 1.95V8.196C14.59 8.568 14.5 8.856 14.32 9.06C14.152 9.264 13.882 9.366 13.51 9.366H5.842C5.638 9.366 5.404 9.288 5.14 9.132C4.888 8.964 4.666 8.778 4.474 8.574C4.294 8.394 4.132 8.19 3.988 7.962C3.844 7.734 3.772 7.536 3.772 7.368V1.95H5.77V4.002H12.592V1.95H14.59ZM10.18 16.998C10.18 17.142 10.084 17.244 9.892 17.304C9.712 17.376 9.478 17.412 9.19 17.412C8.902 17.412 8.662 17.376 8.47 17.304C8.278 17.244 8.182 17.142 8.182 16.998V12.786H1.54V11.04H16.57C16.858 11.04 17.002 11.334 17.002 11.922C17.002 12.498 16.858 12.786 16.57 12.786H10.18V16.998ZM12.592 7.638V5.73H5.77V7.044C5.77 7.284 5.812 7.446 5.896 7.53C5.992 7.602 6.142 7.638 6.346 7.638H12.592ZM28.3088 1.446H30.3068V5.694H32.9528V7.422H30.3068V12.462C30.3068 12.618 30.2048 12.726 30.0008 12.786C29.8088 12.846 29.5748 12.876 29.2988 12.876C29.0228 12.876 28.7888 12.846 28.5968 12.786C28.4048 12.726 28.3088 12.618 28.3088 12.462V1.446ZM22.1528 17.844C21.9488 17.844 21.7148 17.76 21.4508 17.592C21.1988 17.424 20.9768 17.238 20.7848 17.034C20.6048 16.854 20.4428 16.65 20.2988 16.422C20.1548 16.194 20.0828 15.996 20.0828 15.828V11.958H22.0808V15.504C22.0808 15.9 22.2668 16.098 22.6388 16.098H30.2348C30.5228 16.098 30.6668 16.392 30.6668 16.98C30.6668 17.292 30.6248 17.514 30.5408 17.646C30.4688 17.778 30.3668 17.844 30.2348 17.844H22.1528ZM25.3208 10.482C25.0448 10.23 24.7568 9.948 24.4568 9.636C24.1568 9.312 23.8628 8.97 23.5748 8.61C23.2988 8.25 23.0288 7.878 22.7648 7.494C22.5128 7.098 22.2968 6.702 22.1168 6.306C21.9248 6.75 21.6848 7.188 21.3968 7.62C21.1208 8.04 20.8268 8.442 20.5148 8.826C20.2028 9.21 19.8788 9.57 19.5428 9.906C19.2188 10.23 18.9068 10.524 18.6068 10.788C18.4748 10.896 18.3368 10.92 18.1928 10.86C18.0488 10.8 17.8568 10.638 17.6168 10.374C17.4128 10.146 17.2628 9.966 17.1668 9.834C17.0828 9.702 17.1068 9.582 17.2388 9.474C17.9348 8.862 18.5528 8.22 19.0928 7.548C19.6448 6.876 20.0888 6.18 20.4248 5.46C20.6048 5.064 20.7308 4.662 20.8028 4.254C20.8748 3.834 20.9108 3.396 20.9108 2.94V1.95H23.0528V2.94C23.0528 3.396 23.1128 3.846 23.2328 4.29C23.3648 4.722 23.5388 5.148 23.7548 5.568C24.1268 6.288 24.5588 6.96 25.0508 7.584C25.5428 8.208 26.0348 8.742 26.5268 9.186C26.6468 9.282 26.6708 9.396 26.5988 9.528C26.5388 9.648 26.4008 9.828 26.1848 10.068C25.9448 10.344 25.7648 10.506 25.6448 10.554C25.5368 10.602 25.4288 10.578 25.3208 10.482ZM45.3576 14.928C45.3576 15.456 45.2496 15.936 45.0336 16.368C44.8176 16.8 44.5236 17.166 44.1516 17.466C43.7916 17.778 43.3656 18.012 42.8736 18.168C42.3816 18.336 41.8656 18.42 41.3256 18.42C40.7856 18.42 40.2696 18.336 39.7776 18.168C39.2856 18.012 38.8536 17.778 38.4816 17.466C38.1216 17.166 37.8336 16.8 37.6176 16.368C37.4016 15.936 37.2936 15.456 37.2936 14.928C37.2936 14.4 37.4016 13.926 37.6176 13.506C37.8336 13.074 38.1216 12.708 38.4816 12.408C38.8536 12.096 39.2856 11.862 39.7776 11.706C40.2696 11.538 40.7856 11.454 41.3256 11.454C41.8656 11.454 42.3816 11.538 42.8736 11.706C43.3656 11.862 43.7916 12.096 44.1516 12.408C44.5236 12.708 44.8176 13.074 45.0336 13.506C45.2496 13.926 45.3576 14.4 45.3576 14.928ZM32.6856 10.464V8.736H35.6016V5.64H37.5996V8.736H42.8916C43.1796 8.736 43.3236 9.024 43.3236 9.6C43.3236 9.9 43.2936 10.122 43.2336 10.266C43.1736 10.398 43.0596 10.464 42.8916 10.464H32.6856ZM46.1496 11.166C46.1496 11.322 46.0476 11.43 45.8436 11.49C45.6516 11.55 45.4176 11.58 45.1416 11.58C44.4816 11.58 44.1516 11.442 44.1516 11.166V1.446H46.1496V5.154H48.6156V6.882H46.1496V11.166ZM40.9116 7.584C40.5996 7.584 40.3536 7.554 40.1736 7.494C40.0056 7.422 39.9216 7.314 39.9216 7.17V4.128C39.9216 3.888 39.8736 3.732 39.7776 3.66C39.6936 3.576 39.5496 3.534 39.3456 3.534H33.6576V1.788H39.8496C40.0536 1.788 40.2816 1.872 40.5336 2.04C40.7976 2.196 41.0256 2.376 41.2176 2.58C41.3976 2.76 41.5596 2.964 41.7036 3.192C41.8476 3.42 41.9196 3.618 41.9196 3.786V7.17C41.9196 7.446 41.5836 7.584 40.9116 7.584ZM39.2736 14.928C39.2736 15.468 39.4596 15.9 39.8316 16.224C40.2156 16.548 40.7136 16.71 41.3256 16.71C41.9376 16.71 42.4296 16.548 42.8016 16.224C43.1856 15.9 43.3776 15.468 43.3776 14.928C43.3776 14.4 43.1856 13.974 42.8016 13.65C42.4296 13.326 41.9376 13.164 41.3256 13.164C40.7136 13.164 40.2156 13.326 39.8316 13.65C39.4596 13.974 39.2736 14.4 39.2736 14.928ZM62.1724 10.338C62.1724 10.494 62.0704 10.602 61.8664 10.662C61.6744 10.722 61.4404 10.752 61.1644 10.752C60.5044 10.752 60.1744 10.614 60.1744 10.338V8.502H55.9624C55.5784 8.934 55.1104 9.276 54.5584 9.528C54.0064 9.78 53.3884 9.906 52.7044 9.906C52.0924 9.906 51.5224 9.804 50.9944 9.6C50.4784 9.384 50.0284 9.096 49.6444 8.736C49.2724 8.364 48.9784 7.932 48.7624 7.44C48.5584 6.936 48.4564 6.396 48.4564 5.82C48.4564 5.244 48.5584 4.704 48.7624 4.2C48.9784 3.696 49.2724 3.258 49.6444 2.886C50.0284 2.514 50.4784 2.22 50.9944 2.004C51.5224 1.788 52.0924 1.68 52.7044 1.68C53.3284 1.68 53.8984 1.794 54.4144 2.022C54.9424 2.238 55.3984 2.538 55.7824 2.922H60.1744V1.446H62.1724V10.338ZM59.9944 13.344H51.5164V11.598H61.2544C61.4944 11.598 61.6744 11.658 61.7944 11.778C61.9264 11.886 61.9924 12.096 61.9924 12.408V17.772C62.0044 17.916 61.9084 18.018 61.7044 18.078C61.5124 18.138 61.2784 18.168 61.0024 18.168C60.6904 18.168 60.4444 18.126 60.2644 18.042C60.0844 17.97 59.9944 17.868 59.9944 17.736V13.344ZM54.9724 5.82C54.9724 5.472 54.9184 5.154 54.8104 4.866C54.7024 4.566 54.5464 4.308 54.3424 4.092C54.1504 3.876 53.9104 3.708 53.6224 3.588C53.3464 3.456 53.0404 3.39 52.7044 3.39C52.3684 3.39 52.0564 3.456 51.7684 3.588C51.4924 3.708 51.2524 3.876 51.0484 4.092C50.8564 4.308 50.7064 4.566 50.5984 4.866C50.4904 5.154 50.4364 5.472 50.4364 5.82C50.4364 6.516 50.6404 7.086 51.0484 7.53C51.4684 7.974 52.0204 8.196 52.7044 8.196C53.3884 8.196 53.9344 7.974 54.3424 7.53C54.7624 7.086 54.9724 6.516 54.9724 5.82ZM56.9524 5.82C56.9524 6.168 56.9164 6.492 56.8444 6.792H60.1744V4.632H56.7724C56.8324 4.824 56.8744 5.022 56.8984 5.226C56.9344 5.418 56.9524 5.616 56.9524 5.82ZM77.2861 16.44C77.2861 16.584 77.1901 16.686 76.9981 16.746C76.8181 16.818 76.5841 16.854 76.2961 16.854C76.0081 16.854 75.7681 16.818 75.5761 16.746C75.3841 16.686 75.2881 16.584 75.2881 16.44V1.626H77.2861V16.44ZM72.6601 13.038C72.3481 12.786 72.0181 12.486 71.6701 12.138C71.3341 11.79 71.0041 11.418 70.6801 11.022C70.3561 10.614 70.0561 10.194 69.7801 9.762C69.5041 9.33 69.2761 8.898 69.0961 8.466C68.9161 8.922 68.6761 9.378 68.3761 9.834C68.0761 10.278 67.7461 10.716 67.3861 11.148C67.0381 11.568 66.6721 11.964 66.2881 12.336C65.9161 12.696 65.5621 13.008 65.2261 13.272C65.0941 13.368 64.9561 13.392 64.8121 13.344C64.6681 13.284 64.4761 13.122 64.2361 12.858C64.0321 12.63 63.8821 12.45 63.7861 12.318C63.7021 12.186 63.7261 12.066 63.8581 11.958C64.4101 11.478 64.9321 10.974 65.4241 10.446C65.9161 9.906 66.3421 9.348 66.7021 8.772C67.0741 8.184 67.3621 7.578 67.5661 6.954C67.7821 6.318 67.8901 5.658 67.8901 4.974V2.688H70.0321V4.938C70.0321 5.586 70.1521 6.228 70.3921 6.864C70.6321 7.5 70.9321 8.112 71.2921 8.7C71.6641 9.276 72.0781 9.822 72.5341 10.338C72.9901 10.842 73.4341 11.292 73.8661 11.688C73.9741 11.784 73.9981 11.904 73.9381 12.048C73.8901 12.18 73.7581 12.366 73.5421 12.606C73.3501 12.81 73.1821 12.96 73.0381 13.056C72.9061 13.14 72.7801 13.134 72.6601 13.038Z" fill="#333333"/>
</svg>
