<svg width="185" height="26" viewBox="0 0 185 26" fill="none" xmlns="http://www.w3.org/2000/svg">
<path d="M15.588 13.434V1.422H19.124V5.582H23.05V8.572H19.124V13.434C19.124 14.058 18.448 14.24 17.356 14.24C16.264 14.24 15.588 14.058 15.588 13.434ZM3.654 22.404V15.41H18.864V23.47C18.864 24.666 18.266 25.368 16.966 25.368H6.826C6.124 25.368 5.292 24.796 4.72 24.198C4.174 23.652 3.654 22.898 3.654 22.404ZM7.19 18.374V21.91C7.19 22.248 7.346 22.404 7.658 22.404H15.328V18.374H7.19ZM5.11 9.976H13.222C13.82 9.976 13.924 10.548 13.924 11.51C13.924 12.498 13.82 13.018 13.222 13.018H4.252C3.576 13.018 2.614 12.368 2.042 11.796C1.496 11.224 0.95 10.418 0.95 9.898V2.02H4.538V9.378C4.538 9.768 4.746 9.976 5.11 9.976ZM23.5619 14.084H45.0899C45.7919 14.084 45.8959 14.63 45.8959 15.618C45.8959 16.632 45.7919 17.126 45.0899 17.126H36.1459V23.73C36.1459 24.328 35.4959 24.484 34.3259 24.484C33.2339 24.484 32.5579 24.354 32.5579 23.756V17.126H23.5619V14.084ZM40.4619 12.654C39.3699 12.654 38.6939 12.498 38.6939 11.9V6.05C38.6939 5.582 38.4859 5.478 38.1219 5.478H26.4999V2.436H38.9799C39.6559 2.436 40.5919 3.034 41.1899 3.632C41.7359 4.178 42.2819 4.984 42.2819 5.504V11.9C42.2819 12.498 41.6319 12.654 40.4619 12.654ZM56.4697 12.836H47.2137V10.002H62.3198V5.192C62.3198 4.724 62.1118 4.62 61.7478 4.62H50.3857V1.656H62.5537C63.2297 1.656 64.1658 2.254 64.7638 2.852C65.3097 3.398 65.8557 4.204 65.8557 4.724V10.002H68.7418C69.4438 10.002 69.5478 10.444 69.5478 11.432C69.5478 12.446 69.4438 12.836 68.7418 12.836H60.0578V16.19H64.7897C65.8557 16.19 66.2457 16.528 66.2457 17.646V24.848C66.2457 25.55 65.4398 25.576 64.4778 25.576C63.3857 25.576 62.7098 25.472 62.7098 24.848V19.05H50.1777V16.19H56.4697V12.836ZM79.8096 22.17H90.7036C91.2756 22.17 91.3796 22.768 91.3796 23.652C91.3796 24.614 91.2756 25.108 90.7036 25.108H78.9256C78.2496 25.108 77.3136 24.484 76.7676 23.912C76.1956 23.366 75.6756 22.56 75.6756 22.066V16.528H79.2116V21.598C79.2116 21.988 79.4196 22.17 79.8096 22.17ZM81.8376 14.058H74.8436C74.1936 14.058 73.2836 13.434 72.7116 12.862C72.1656 12.316 71.6456 11.51 71.6456 10.938V2.28H83.6836V12.082C83.6836 13.304 83.0856 14.058 81.8376 14.058ZM80.2256 11.146V5.192H75.1036V10.6C75.1036 10.964 75.2596 11.146 75.6496 11.146H80.2256ZM90.8596 1.422V17.23C90.8596 17.906 90.0536 18.01 89.0916 18.01C87.9736 18.01 87.3236 17.828 87.3236 17.23V1.422H90.8596ZM104.156 8.13H100.88C100.88 8.806 101.01 9.716 101.218 10.366C101.998 12.68 103.48 14.5 104.91 16.242C105.274 16.684 105.17 16.97 104.338 17.698C103.272 18.634 102.96 18.686 102.622 18.296C101.348 16.892 100.256 15.358 99.2678 13.252C98.3058 15.462 96.8238 17.386 95.7578 18.53C95.3678 18.972 95.0038 18.868 94.0158 18.036C93.0278 17.204 92.9498 16.892 93.3658 16.45C94.8218 14.812 96.5898 12.316 97.1358 10.08C97.2658 9.508 97.3438 8.676 97.3438 8.13H93.6518V5.088H97.3438V1.89H100.854V5.088H104.156C104.754 5.088 104.858 5.634 104.858 6.596C104.858 7.584 104.754 8.13 104.156 8.13ZM106.314 12.836H103.116V9.794H106.314V1.942H109.694V22.898C109.694 23.444 109.096 23.574 108.004 23.574C106.938 23.574 106.314 23.444 106.314 22.898V12.836ZM114.894 1.682V23.132C114.894 23.704 114.27 23.834 113.152 23.834C112.086 23.834 111.436 23.704 111.436 23.132V1.682H114.894ZM132.904 24.848V19.83H120.372V16.97H122.816V14.786H117.408V11.952H138.936C139.638 11.952 139.742 12.394 139.742 13.382C139.742 14.396 139.638 14.786 138.936 14.786H133.398V16.97H134.984C136.05 16.97 136.44 17.308 136.44 18.426V24.848C136.44 25.55 135.634 25.576 134.672 25.576C133.58 25.576 132.904 25.472 132.904 24.848ZM135.114 5.582C135.114 8.884 131.968 10.86 128.432 10.86C124.896 10.86 121.75 8.884 121.75 5.582C121.75 2.28 124.896 0.303998 128.432 0.303998C131.968 0.303998 135.114 2.228 135.114 5.582ZM131.604 5.582C131.604 4.36 130.486 3.138 128.406 3.138C126.378 3.138 125.26 4.36 125.26 5.582C125.26 6.804 126.378 8.026 128.406 8.026C130.486 8.026 131.604 6.804 131.604 5.582ZM126.274 14.786V16.97H129.94V14.786H126.274ZM149.822 13.98C148.808 12.992 147.352 11.146 146.546 9.482C145.766 11.38 144.362 13.252 143.218 14.396C142.698 14.916 142.438 14.89 141.45 14.032C140.696 13.382 140.228 13.07 140.774 12.42C142.828 10.106 144.544 7.532 144.544 4.646V2.15H148.21V4.594C148.21 7.454 150.758 10.652 152.058 12.03C152.5 12.498 152.188 12.888 151.46 13.538C150.524 14.37 150.316 14.474 149.822 13.98ZM150.524 22.17H161.99C162.562 22.17 162.666 22.768 162.666 23.652C162.666 24.614 162.562 25.108 161.99 25.108H149.64C148.964 25.108 148.028 24.484 147.482 23.912C146.91 23.366 146.39 22.56 146.39 22.066V16.528H149.926V21.598C149.926 21.988 150.134 22.17 150.524 22.17ZM153.8 8.676H150.654V5.634H153.8V1.682H157.128V16.892C157.128 17.464 156.556 17.594 155.464 17.594C154.398 17.594 153.8 17.464 153.8 16.892V8.676ZM158.792 17.152V1.422H162.198V17.152C162.198 17.724 161.6 17.854 160.482 17.854C159.416 17.854 158.792 17.724 158.792 17.152ZM175.631 6.388H168.559V9.56H175.241C175.839 9.56 175.943 10.106 175.943 11.068C175.943 12.056 175.839 12.602 175.241 12.602H168.559V15.15C168.559 15.54 168.767 15.748 169.131 15.748H177.113C177.711 15.748 177.815 16.294 177.815 17.256C177.815 18.244 177.711 18.79 177.113 18.79H168.273C167.597 18.79 166.635 18.14 166.063 17.568C165.517 16.996 164.971 16.216 164.971 15.696V3.346H175.631C176.229 3.346 176.333 3.892 176.333 4.854C176.333 5.842 176.229 6.388 175.631 6.388ZM184.445 1.682V23.158C184.445 23.756 183.795 23.912 182.625 23.912C181.533 23.912 180.857 23.782 180.857 23.184V12.056H177.295V9.014H180.857V1.682H184.445Z" fill="black"/>
</svg>
